# xmcd
#
# Track frame offsets: 
#        150
#        16554
#        32970
#        52191
#        66138
#        80024
#        96790
#        112463
#        124278
#        139274
#        153690
#        172325
#        187335
#        202602
#        220461
#        235841
#
# Disc length: 3361 seconds
#
# Revision: 0
# Processed by: cddbd v1.5.2PL0 Copyright (c) Steve Scherf et al.
# Submitted via: ExactAudioCopy v1.3
#
DISCID=f80d1f10
DTITLE=Sarit Hadad (שרית חדד) - Sarit Hadad (שרית חדד)
DYEAR=2015
DGENRE=Pop
TTITLE0=Haor Benishmati
TTITLE1=Hikiti Lo
TTITLE2=Linshom Otcha
TTITLE3=Tafranim
TTITLE4=Mabruk
TTITLE5=Hevtachta Li Olam
TTITLE6=Layla Layla
TTITLE7=Hatsaim
TTITLE8=Libi Od Ohev
TTITLE9=Mimi
TTITLE10=Berega Echad
TTITLE11=Inta Daiman
TTITLE12=Bishvili
TTITLE13=Kinorot Yenagnu
TTITLE14=Lauf
TTITLE15=Bat Shel Melech
EXTD=
EXTT0=
EXTT1=
EXTT2=
EXTT3=
EXTT4=
EXTT5=
EXTT6=
EXTT7=
EXTT8=
EXTT9=
EXTT10=
EXTT11=
EXTT12=
EXTT13=
EXTT14=
EXTT15=
PLAYORDER=
